<?xml version="1.0" encoding="UTF-8"?><svg xmlns="http://www.w3.org/2000/svg" xmlns:xlink="http://www.w3.org/1999/xlink" fill-opacity="1" color-rendering="auto" color-interpolation="auto" text-rendering="auto" stroke="black" stroke-linecap="square" width="1091" stroke-miterlimit="10" shape-rendering="auto" stroke-opacity="1" fill="black" stroke-dasharray="none" font-weight="normal" stroke-width="1" height="949" font-family="'Dialog'" font-style="normal" stroke-linejoin="miter" font-size="12px" stroke-dashoffset="0" image-rendering="auto">
  <!--Generated by ySVG 2.5-->
  <defs id="genericDefs"/>
  <g>
    <defs id="defs1">
      <clipPath clipPathUnits="userSpaceOnUse" id="clipPath1">
        <path d="M0 0 L1091 0 L1091 949 L0 949 L0 0 Z"/>
      </clipPath>
      <clipPath clipPathUnits="userSpaceOnUse" id="clipPath2">
        <path d="M-449 398 L642 398 L642 1347 L-449 1347 L-449 398 Z"/>
      </clipPath>
    </defs>
    <g fill="white" text-rendering="geometricPrecision" shape-rendering="geometricPrecision" transform="translate(449,-398)" stroke="white">
      <rect x="-449" width="1091" height="949" y="398" clip-path="url(#clipPath2)" stroke="none"/>
    </g>
    <g fill="rgb(255,255,51)" text-rendering="geometricPrecision" shape-rendering="geometricPrecision" transform="matrix(1,0,0,1,449,-398)" stroke="rgb(255,255,51)">
      <ellipse rx="66.5" ry="34.5" clip-path="url(#clipPath2)" cx="-366.8832" cy="448.1862" stroke="none"/>
    </g>
    <g text-rendering="geometricPrecision" stroke-miterlimit="1.45" stroke-width="3" shape-rendering="geometricPrecision" transform="matrix(1,0,0,1,449,-398)" stroke-linecap="butt">
      <ellipse rx="66.5" fill="none" ry="34.5" clip-path="url(#clipPath2)" cx="-366.8832" cy="448.1862"/>
      <text x="-403.1879" y="452.3405" clip-path="url(#clipPath2)" font-family="sans-serif" stroke="none" font-weight="bold" stroke-width="1" xml:space="preserve">UNKNOWN</text>
    </g>
    <g fill="rgb(51,204,255)" text-rendering="geometricPrecision" shape-rendering="geometricPrecision" transform="matrix(1,0,0,1,449,-398)" stroke="rgb(51,204,255)">
      <ellipse rx="66.5" ry="34.5" clip-path="url(#clipPath2)" cx="99.2645" cy="448.1862" stroke="none"/>
    </g>
    <g text-rendering="geometricPrecision" stroke-miterlimit="1.45" stroke-width="3" shape-rendering="geometricPrecision" transform="matrix(1,0,0,1,449,-398)" stroke-linecap="butt">
      <ellipse rx="66.5" fill="none" ry="34.5" clip-path="url(#clipPath2)" cx="99.2645" cy="448.1862"/>
      <text x="68.8632" y="445.3562" clip-path="url(#clipPath2)" font-family="sans-serif" stroke="none" font-weight="bold" stroke-width="1" xml:space="preserve">FORCING</text>
      <text x="72.3348" y="459.3249" clip-path="url(#clipPath2)" font-family="sans-serif" stroke="none" font-weight="bold" stroke-width="1" xml:space="preserve">REPORT</text>
    </g>
    <g fill="rgb(255,255,51)" text-rendering="geometricPrecision" shape-rendering="geometricPrecision" transform="matrix(1,0,0,1,449,-398)" stroke="rgb(255,255,51)">
      <ellipse rx="66.5" ry="34.5" clip-path="url(#clipPath2)" cx="99.2645" cy="568.4037" stroke="none"/>
    </g>
    <g text-rendering="geometricPrecision" stroke-miterlimit="1.45" stroke-width="3" shape-rendering="geometricPrecision" transform="matrix(1,0,0,1,449,-398)" stroke-linecap="butt">
      <ellipse rx="66.5" fill="none" ry="34.5" clip-path="url(#clipPath2)" cx="99.2645" cy="568.4037"/>
      <text x="63.2557" y="572.558" clip-path="url(#clipPath2)" font-family="sans-serif" stroke="none" font-weight="bold" stroke-width="1" xml:space="preserve">REPORTED</text>
    </g>
    <g fill="rgb(51,204,255)" text-rendering="geometricPrecision" shape-rendering="geometricPrecision" transform="matrix(1,0,0,1,449,-398)" stroke="rgb(51,204,255)">
      <ellipse rx="66.5" ry="34.5" clip-path="url(#clipPath2)" cx="99.2645" cy="688.6212" stroke="none"/>
    </g>
    <g text-rendering="geometricPrecision" stroke-miterlimit="1.45" stroke-width="3" shape-rendering="geometricPrecision" transform="matrix(1,0,0,1,449,-398)" stroke-linecap="butt">
      <ellipse rx="66.5" fill="none" ry="34.5" clip-path="url(#clipPath2)" cx="99.2645" cy="688.6212"/>
      <text x="68.8632" y="678.8068" clip-path="url(#clipPath2)" font-family="sans-serif" stroke="none" font-weight="bold" stroke-width="1" xml:space="preserve">FORCING</text>
      <text x="73.4364" y="692.7755" clip-path="url(#clipPath2)" font-family="sans-serif" stroke="none" font-weight="bold" stroke-width="1" xml:space="preserve">RESULT</text>
      <text x="63.7479" y="706.7443" clip-path="url(#clipPath2)" font-family="sans-serif" stroke="none" font-weight="bold" stroke-width="1" xml:space="preserve">TRANSFER</text>
    </g>
    <g fill="rgb(255,255,51)" text-rendering="geometricPrecision" shape-rendering="geometricPrecision" transform="matrix(1,0,0,1,449,-398)" stroke="rgb(255,255,51)">
      <ellipse rx="66.5" ry="34.5" clip-path="url(#clipPath2)" cx="99.2645" cy="808.8387" stroke="none"/>
    </g>
    <g text-rendering="geometricPrecision" stroke-miterlimit="1.45" stroke-width="3" shape-rendering="geometricPrecision" transform="matrix(1,0,0,1,449,-398)" stroke-linecap="butt">
      <ellipse rx="66.5" fill="none" ry="34.5" clip-path="url(#clipPath2)" cx="99.2645" cy="808.8387"/>
      <text x="73.4364" y="806.0086" clip-path="url(#clipPath2)" font-family="sans-serif" stroke="none" font-weight="bold" stroke-width="1" xml:space="preserve">RESULT</text>
      <text x="62.3681" y="819.9774" clip-path="url(#clipPath2)" font-family="sans-serif" stroke="none" font-weight="bold" stroke-width="1" xml:space="preserve">UPLOADED</text>
    </g>
    <g fill="rgb(51,204,255)" text-rendering="geometricPrecision" shape-rendering="geometricPrecision" transform="matrix(1,0,0,1,449,-398)" stroke="rgb(51,204,255)">
      <ellipse rx="66.5" ry="34.5" clip-path="url(#clipPath2)" cx="99.2645" cy="929.0562" stroke="none"/>
    </g>
    <g text-rendering="geometricPrecision" stroke-miterlimit="1.45" stroke-width="3" shape-rendering="geometricPrecision" transform="matrix(1,0,0,1,449,-398)" stroke-linecap="butt">
      <ellipse rx="66.5" fill="none" ry="34.5" clip-path="url(#clipPath2)" cx="99.2645" cy="929.0562"/>
      <text x="68.8632" y="926.2261" clip-path="url(#clipPath2)" font-family="sans-serif" stroke="none" font-weight="bold" stroke-width="1" xml:space="preserve">FORCING</text>
      <text x="55.0585" y="940.1948" clip-path="url(#clipPath2)" font-family="sans-serif" stroke="none" font-weight="bold" stroke-width="1" xml:space="preserve">ACCEPTANCE</text>
    </g>
    <g fill="rgb(255,255,51)" text-rendering="geometricPrecision" shape-rendering="geometricPrecision" transform="matrix(1,0,0,1,449,-398)" stroke="rgb(255,255,51)">
      <ellipse rx="66.5" ry="34.5" clip-path="url(#clipPath2)" cx="363.5046" cy="1169.4911" stroke="none"/>
    </g>
    <g text-rendering="geometricPrecision" stroke-miterlimit="1.45" stroke-width="3" shape-rendering="geometricPrecision" transform="matrix(1,0,0,1,449,-398)" stroke-linecap="butt">
      <ellipse rx="66.5" fill="none" ry="34.5" clip-path="url(#clipPath2)" cx="363.5046" cy="1169.4911"/>
      <text x="328.3864" y="1173.6454" clip-path="url(#clipPath2)" font-family="sans-serif" stroke="none" font-weight="bold" stroke-width="1" xml:space="preserve">ACCEPTED</text>
    </g>
    <g fill="rgb(255,255,51)" text-rendering="geometricPrecision" shape-rendering="geometricPrecision" transform="matrix(1,0,0,1,449,-398)" stroke="rgb(255,255,51)">
      <ellipse rx="66.5" ry="34.5" clip-path="url(#clipPath2)" cx="99.2645" cy="1049.2736" stroke="none"/>
    </g>
    <g text-rendering="geometricPrecision" stroke-miterlimit="1.45" stroke-width="3" shape-rendering="geometricPrecision" transform="matrix(1,0,0,1,449,-398)" stroke-linecap="butt">
      <ellipse rx="66.5" fill="none" ry="34.5" clip-path="url(#clipPath2)" cx="99.2645" cy="1049.2736"/>
      <text x="66.6395" y="1053.428" clip-path="url(#clipPath2)" font-family="sans-serif" stroke="none" font-weight="bold" stroke-width="1" xml:space="preserve">REJECTED</text>
    </g>
    <g fill="rgb(51,204,255)" text-rendering="geometricPrecision" shape-rendering="geometricPrecision" transform="matrix(1,0,0,1,449,-398)" stroke="rgb(51,204,255)">
      <ellipse rx="66.5" ry="34.5" clip-path="url(#clipPath2)" cx="99.2645" cy="1169.4911" stroke="none"/>
    </g>
    <g text-rendering="geometricPrecision" stroke-miterlimit="1.45" stroke-width="3" shape-rendering="geometricPrecision" transform="matrix(1,0,0,1,449,-398)" stroke-linecap="butt">
      <ellipse rx="66.5" fill="none" ry="34.5" clip-path="url(#clipPath2)" cx="99.2645" cy="1169.4911"/>
      <text x="57.5136" y="1166.661" clip-path="url(#clipPath2)" font-family="sans-serif" stroke="none" font-weight="bold" stroke-width="1" xml:space="preserve">ADDITIONAL</text>
      <text x="51.8446" y="1180.6298" clip-path="url(#clipPath2)" font-family="sans-serif" stroke="none" font-weight="bold" stroke-width="1" xml:space="preserve">VERIFICATION</text>
    </g>
    <g fill="rgb(255,255,51)" text-rendering="geometricPrecision" shape-rendering="geometricPrecision" transform="matrix(1,0,0,1,449,-398)" stroke="rgb(255,255,51)">
      <ellipse rx="66.5" ry="34.5" clip-path="url(#clipPath2)" cx="560.4017" cy="1297.2744" stroke="none"/>
    </g>
    <g text-rendering="geometricPrecision" stroke-miterlimit="1.45" stroke-width="3" shape-rendering="geometricPrecision" transform="matrix(1,0,0,1,449,-398)" stroke-linecap="butt">
      <ellipse rx="66.5" fill="none" ry="34.5" clip-path="url(#clipPath2)" cx="560.4017" cy="1297.2744"/>
      <text x="536.5248" y="1301.4287" clip-path="url(#clipPath2)" font-family="sans-serif" stroke="none" font-weight="bold" stroke-width="1" xml:space="preserve">FAILED</text>
      <path fill="none" d="M-300.3986 448.1862 L24.7333 448.1862" stroke-width="1" clip-path="url(#clipPath2)"/>
      <path d="M32.7333 448.1862 L20.7333 443.1862 L23.7333 448.1862 L20.7333 453.1862 Z" stroke-width="1" clip-path="url(#clipPath2)" stroke="none"/>
    </g>
    <g stroke-linecap="butt" font-size="10px" transform="matrix(1,0,0,1,449,-398)" fill="rgb(255,153,51)" text-rendering="geometricPrecision" font-family="'Arial'" shape-rendering="geometricPrecision" stroke="rgb(255,153,51)" font-weight="bold" stroke-miterlimit="1.45">
      <text x="-200.4516" xml:space="preserve" y="427.2531" clip-path="url(#clipPath2)" stroke="none">ForceReportComputedTask</text>
    </g>
    <g font-size="8px" stroke-linecap="butt" transform="matrix(1,0,0,1,449,-398)" text-rendering="geometricPrecision" font-family="monospace" shape-rendering="geometricPrecision" stroke-miterlimit="1.45">
      <text x="-174.716" xml:space="preserve" y="441.7558" clip-path="url(#clipPath2)" stroke="none">t &lt;= deadline</text>
    </g>
    <g stroke-linecap="butt" transform="matrix(1,0,0,1,449,-398)" fill="rgb(0,204,0)" text-rendering="geometricPrecision" shape-rendering="geometricPrecision" stroke="rgb(0,204,0)" stroke-width="2" stroke-miterlimit="1.45">
      <path fill="none" d="M121.2645 480.7715 L121.2645 526.8337" clip-path="url(#clipPath2)"/>
      <path d="M121.2645 535.8337 L126.8895 522.3337 L121.2645 525.7087 L115.6395 522.3337 Z" clip-path="url(#clipPath2)" stroke="none"/>
    </g>
    <g stroke-linecap="butt" font-size="10px" transform="matrix(1,0,0,1,449,-398)" fill="rgb(51,153,255)" text-rendering="geometricPrecision" font-family="'Arial'" shape-rendering="geometricPrecision" stroke="rgb(51,153,255)" font-weight="bold" stroke-miterlimit="1.45">
      <text x="131.2656" xml:space="preserve" y="502.739" clip-path="url(#clipPath2)" stroke="none">AckReportComputedTask</text>
    </g>
    <g font-size="8px" stroke-linecap="butt" transform="matrix(1,0,0,1,449,-398)" text-rendering="geometricPrecision" font-family="monospace" shape-rendering="geometricPrecision" stroke-miterlimit="1.45">
      <text x="131.1087" xml:space="preserve" y="515.0645" clip-path="url(#clipPath2)" stroke="none">t &lt;= deadline + CMT</text>
    </g>
    <g stroke-linecap="butt" transform="matrix(1,0,0,1,449,-398)" fill="rgb(0,204,0)" text-rendering="geometricPrecision" shape-rendering="geometricPrecision" stroke="rgb(0,204,0)" stroke-width="2" stroke-miterlimit="1.45">
      <path fill="none" d="M74.5 480.1753 L74.5 527.3955" clip-path="url(#clipPath2)"/>
      <path d="M74.5 536.3955 L80.125 522.8955 L74.5 526.2705 L68.875 522.8955 Z" clip-path="url(#clipPath2)" stroke="none"/>
    </g>
    <g font-size="10px" stroke-linecap="butt" transform="matrix(1,0,0,1,449,-398)" text-rendering="geometricPrecision" font-family="'Arial'" shape-rendering="geometricPrecision" font-weight="bold" stroke-miterlimit="1.45">
      <text x="24.8458" xml:space="preserve" y="503.539" clip-path="url(#clipPath2)" stroke="none">timeout</text>
      <text x="-23.6477" font-size="8px" y="514.5839" clip-path="url(#clipPath2)" font-family="monospace" stroke="none" font-weight="normal" xml:space="preserve">t = deadline + CMT</text>
      <path fill="none" d="M-366.8832 482.6835 L-366.8832 688.6212 L24.7287 688.6212" clip-path="url(#clipPath2)"/>
      <path d="M32.7287 688.6212 L20.7287 683.6212 L23.7287 688.6212 L20.7287 693.6212 Z" stroke="none" clip-path="url(#clipPath2)"/>
      <text fill="rgb(51,153,255)" x="-304.5321" xml:space="preserve" y="661.288" clip-path="url(#clipPath2)" stroke="none">ForceGetTaskResult</text>
      <text x="-355.3831" font-size="8px" y="677.8154" clip-path="url(#clipPath2)" font-family="monospace" stroke="none" font-weight="normal" xml:space="preserve">report + MDT &lt; t &lt; report + MDT + MAT + 2MMTT</text>
      <path fill="none" d="M99.2645 602.9037 L99.2645 646.1212" clip-path="url(#clipPath2)"/>
      <path d="M99.2645 654.1212 L104.2645 642.1212 L99.2645 645.1212 L94.2645 642.1212 Z" stroke="none" clip-path="url(#clipPath2)"/>
      <text fill="rgb(51,153,255)" x="108.4366" xml:space="preserve" y="621.8981" clip-path="url(#clipPath2)" stroke="none">ForceGetTaskResult</text>
      <text x="108.0954" font-size="8px" y="635.2101" clip-path="url(#clipPath2)" font-family="monospace" stroke="none" font-weight="normal" xml:space="preserve">report + MDT &lt; t &lt; report + MDT + MAT + 2MMTT</text>
    </g>
    <g stroke-linecap="butt" transform="matrix(1,0,0,1,449,-398)" fill="rgb(0,204,0)" text-rendering="geometricPrecision" shape-rendering="geometricPrecision" stroke="rgb(0,204,0)" stroke-width="2" stroke-miterlimit="1.45">
      <path fill="none" d="M99.2645 723.1212 L99.2645 765.3387" clip-path="url(#clipPath2)"/>
      <path d="M99.2645 774.3387 L104.8895 760.8387 L99.2645 764.2137 L93.6395 760.8387 Z" clip-path="url(#clipPath2)" stroke="none"/>
    </g>
    <g font-size="10px" stroke-linecap="butt" transform="matrix(1,0,0,1,449,-398)" text-rendering="geometricPrecision" font-family="'Arial'" shape-rendering="geometricPrecision" font-weight="bold" stroke-miterlimit="1.45">
      <text x="108.8103" xml:space="preserve" y="740.9968" clip-path="url(#clipPath2)" stroke="none">timeout</text>
      <text x="108.9528" font-size="8px" y="764.0519" clip-path="url(#clipPath2)" font-family="monospace" stroke="none" font-weight="normal" xml:space="preserve">t = report + 2MDT + 3MAT + 4MMTT + CMT</text>
      <text x="109.1169" font-size="8px" y="752.6221" clip-path="url(#clipPath2)" font-family="monospace" stroke="none" font-weight="normal" xml:space="preserve">all files uploaded</text>
      <path fill="none" d="M-366.8832 482.6849 L-366.8832 916.8334 L29.0653 916.8334" clip-path="url(#clipPath2)"/>
      <path d="M37.0653 916.8334 L25.0653 911.8334 L28.0653 916.8334 L25.0653 921.8334 Z" stroke="none" clip-path="url(#clipPath2)"/>
      <text fill="rgb(255,153,51)" x="-307.3788" xml:space="preserve" y="894.3002" clip-path="url(#clipPath2)" stroke="none">ForceSubtaskResults</text>
      <text x="-342.2276" font-size="8px" y="907.9216" clip-path="url(#clipPath2)" font-family="monospace" stroke="none" font-weight="normal" xml:space="preserve">report + SVT &lt; t &lt;= report + SVT + FAT</text>
      <path fill="none" d="M165.77 568.4037 L363.5045 568.4037 L363.5045 915.7222 L168.5829 915.7222" clip-path="url(#clipPath2)"/>
      <path d="M160.5829 915.7222 L172.5829 920.7222 L169.5829 915.7222 L172.5829 910.7222 Z" stroke="none" clip-path="url(#clipPath2)"/>
      <text fill="rgb(255,153,51)" x="368.3766" xml:space="preserve" y="800.8705" clip-path="url(#clipPath2)" stroke="none">ForceSubtaskResults</text>
      <text x="368.1578" font-size="8px" y="814.7733" clip-path="url(#clipPath2)" font-family="monospace" stroke="none" font-weight="normal" xml:space="preserve">report + SVT &lt; t &lt;= report + SVT + FAT</text>
      <path fill="none" d="M99.2645 843.3527 L99.2645 886.5562" clip-path="url(#clipPath2)"/>
      <path d="M99.2645 894.5562 L104.2645 882.5562 L99.2645 885.5562 L94.2645 882.5562 Z" stroke="none" clip-path="url(#clipPath2)"/>
      <text fill="rgb(255,153,51)" x="105.3366" xml:space="preserve" y="861.7914" clip-path="url(#clipPath2)" stroke="none">ForceSubtaskResults</text>
      <text x="105.7528" font-size="8px" y="876.9987" clip-path="url(#clipPath2)" font-family="monospace" stroke="none" font-weight="normal" xml:space="preserve">report + SVT &lt; t &lt;= report + SVT + FAT</text>
    </g>
    <g stroke-linecap="butt" transform="matrix(1,0,0,1,449,-398)" fill="rgb(0,204,0)" text-rendering="geometricPrecision" shape-rendering="geometricPrecision" stroke="rgb(0,204,0)" stroke-width="2" stroke-miterlimit="1.45">
      <path fill="none" d="M159.6917 943.4719 L363.5045 943.4719 L363.5045 1126.0051" clip-path="url(#clipPath2)"/>
      <path d="M363.5045 1135.0051 L369.1295 1121.5051 L363.5045 1124.8801 L357.8795 1121.5051 Z" clip-path="url(#clipPath2)" stroke="none"/>
    </g>
    <g stroke-linecap="butt" font-size="10px" transform="matrix(1,0,0,1,449,-398)" fill="rgb(51,153,255)" text-rendering="geometricPrecision" font-family="'Arial'" shape-rendering="geometricPrecision" stroke="rgb(51,153,255)" font-weight="bold" stroke-miterlimit="1.45">
      <text x="369.885" xml:space="preserve" y="1030.9895" clip-path="url(#clipPath2)" stroke="none">SubtaskResultsAccepted</text>
    </g>
    <g font-size="8px" stroke-linecap="butt" transform="matrix(1,0,0,1,449,-398)" text-rendering="geometricPrecision" font-family="monospace" shape-rendering="geometricPrecision" stroke-miterlimit="1.45">
      <text x="371.4317" xml:space="preserve" y="1044.7266" clip-path="url(#clipPath2)" stroke="none">t &lt;= report + SVT + FAT + CMT</text>
    </g>
    <g stroke-linecap="butt" transform="matrix(1,0,0,1,449,-398)" fill="rgb(204,51,0)" text-rendering="geometricPrecision" shape-rendering="geometricPrecision" stroke="rgb(204,51,0)" stroke-width="2" stroke-miterlimit="1.45">
      <path fill="none" d="M99.2645 963.5386 L99.2645 1005.7736" clip-path="url(#clipPath2)"/>
      <path d="M99.2645 1014.7736 L104.8895 1001.2736 L99.2645 1004.6486 L93.6395 1001.2736 Z" clip-path="url(#clipPath2)" stroke="none"/>
    </g>
    <g stroke-linecap="butt" font-size="10px" transform="matrix(1,0,0,1,449,-398)" fill="rgb(51,153,255)" text-rendering="geometricPrecision" font-family="'Arial'" shape-rendering="geometricPrecision" stroke="rgb(51,153,255)" font-weight="bold" stroke-miterlimit="1.45">
      <text x="106.4255" xml:space="preserve" y="985.2089" clip-path="url(#clipPath2)" stroke="none">SubtaskResultsRejected</text>
    </g>
    <g font-size="8px" stroke-linecap="butt" transform="matrix(1,0,0,1,449,-398)" text-rendering="geometricPrecision" font-family="monospace" shape-rendering="geometricPrecision" stroke-miterlimit="1.45">
      <text x="105.8266" xml:space="preserve" y="995.9344" clip-path="url(#clipPath2)" stroke="none">t &lt;= report + SVT + FAT + CMT</text>
      <path fill="none" d="M-366.8832 482.7214 L-366.8832 1182.8242 L29.9248 1182.8242" clip-path="url(#clipPath2)"/>
      <path d="M37.9248 1182.8242 L25.9248 1177.8242 L28.9248 1182.8242 L25.9248 1187.8242 Z" stroke="none" clip-path="url(#clipPath2)"/>
    </g>
    <g stroke-linecap="butt" font-size="10px" transform="matrix(1,0,0,1,449,-398)" fill="rgb(255,153,51)" text-rendering="geometricPrecision" font-family="'Arial'" shape-rendering="geometricPrecision" stroke="rgb(255,153,51)" font-weight="bold" stroke-miterlimit="1.45">
      <text x="-304.5627" xml:space="preserve" y="1168.291" clip-path="url(#clipPath2)" stroke="none">SubtaskResultsVerify</text>
    </g>
    <g text-rendering="geometricPrecision" stroke-miterlimit="1.45" shape-rendering="geometricPrecision" transform="matrix(1,0,0,1,449,-398)" stroke-linecap="butt">
      <path fill="none" d="M99.2645 1083.7737 L99.2645 1126.9911" clip-path="url(#clipPath2)"/>
      <path d="M99.2645 1134.9911 L104.2645 1122.9911 L99.2645 1125.9911 L94.2645 1122.9911 Z" clip-path="url(#clipPath2)" stroke="none"/>
    </g>
    <g stroke-linecap="butt" font-size="10px" transform="matrix(1,0,0,1,449,-398)" fill="rgb(255,153,51)" text-rendering="geometricPrecision" font-family="'Arial'" shape-rendering="geometricPrecision" stroke="rgb(255,153,51)" font-weight="bold" stroke-miterlimit="1.45">
      <text x="-6.9442" xml:space="preserve" y="1108.8491" clip-path="url(#clipPath2)" stroke="none">SubtaskResultsVerify</text>
    </g>
    <g text-rendering="geometricPrecision" stroke-miterlimit="1.45" shape-rendering="geometricPrecision" transform="matrix(1,0,0,1,449,-398)" stroke-linecap="butt">
      <path fill="none" d="M32.7629 568.4037 L-123.7684 568.4037 L-123.7684 1156.1581 L29.9665 1156.1581" clip-path="url(#clipPath2)"/>
      <path d="M37.9665 1156.1581 L25.9665 1151.1581 L28.9665 1156.1581 L25.9665 1161.1581 Z" clip-path="url(#clipPath2)" stroke="none"/>
    </g>
    <g stroke-linecap="butt" font-size="10px" transform="matrix(1,0,0,1,449,-398)" fill="rgb(255,153,51)" text-rendering="geometricPrecision" font-family="'Arial'" shape-rendering="geometricPrecision" stroke="rgb(255,153,51)" font-weight="bold" stroke-miterlimit="1.45">
      <text x="-102.6528" xml:space="preserve" y="560.2705" clip-path="url(#clipPath2)" stroke="none">SubtaskResultsVerify</text>
    </g>
    <g text-rendering="geometricPrecision" stroke-miterlimit="1.45" shape-rendering="geometricPrecision" transform="matrix(1,0,0,1,449,-398)" stroke-linecap="butt">
      <path fill="none" d="M32.7643 808.8387 L-123.7684 808.8387 L-123.7684 1156.1581 L29.9211 1156.1581" clip-path="url(#clipPath2)"/>
      <path d="M37.9211 1156.1581 L25.9211 1151.1581 L28.9211 1156.1581 L25.9211 1161.1581 Z" clip-path="url(#clipPath2)" stroke="none"/>
    </g>
    <g stroke-linecap="butt" font-size="10px" transform="matrix(1,0,0,1,449,-398)" fill="rgb(255,153,51)" text-rendering="geometricPrecision" font-family="'Arial'" shape-rendering="geometricPrecision" stroke="rgb(255,153,51)" font-weight="bold" stroke-miterlimit="1.45">
      <text x="-101.8528" xml:space="preserve" y="799.9055" clip-path="url(#clipPath2)" stroke="none">SubtaskResultsVerify</text>
    </g>
    <g text-rendering="geometricPrecision" stroke-miterlimit="1.45" shape-rendering="geometricPrecision" transform="matrix(1,0,0,1,449,-398)" stroke-linecap="butt">
      <path fill="none" d="M38.8296 943.4719 L-123.7684 943.4719 L-123.7684 1156.1581 L29.925 1156.1581" clip-path="url(#clipPath2)"/>
      <path d="M37.925 1156.1581 L25.925 1151.1581 L28.925 1156.1581 L25.925 1161.1581 Z" clip-path="url(#clipPath2)" stroke="none"/>
    </g>
    <g stroke-linecap="butt" font-size="10px" transform="matrix(1,0,0,1,449,-398)" fill="rgb(255,153,51)" text-rendering="geometricPrecision" font-family="'Arial'" shape-rendering="geometricPrecision" stroke="rgb(255,153,51)" font-weight="bold" stroke-miterlimit="1.45">
      <text x="-106.3771" xml:space="preserve" y="962.5388" clip-path="url(#clipPath2)" stroke="none">SubtaskResultsVerify</text>
    </g>
    <g stroke-linecap="butt" transform="matrix(1,0,0,1,449,-398)" fill="rgb(0,204,0)" text-rendering="geometricPrecision" shape-rendering="geometricPrecision" stroke="rgb(0,204,0)" stroke-width="2" stroke-miterlimit="1.45">
      <path fill="none" d="M159.0514 1154.4 L294.692 1154.4" clip-path="url(#clipPath2)"/>
      <path d="M303.692 1154.4 L290.192 1148.775 L293.567 1154.4 L290.192 1160.025 Z" clip-path="url(#clipPath2)" stroke="none"/>
    </g>
    <g font-size="10px" stroke-linecap="butt" transform="matrix(1,0,0,1,449,-398)" text-rendering="geometricPrecision" font-family="'Arial'" shape-rendering="geometricPrecision" font-weight="bold" stroke-miterlimit="1.45">
      <text x="166.3645" xml:space="preserve" y="1132.6667" clip-path="url(#clipPath2)" stroke="none">verification successful</text>
      <text x="158.8713" font-size="8px" y="1146.3695" clip-path="url(#clipPath2)" font-family="monospace" stroke="none" font-weight="normal" xml:space="preserve">t &lt; rejection + AVCT + SVT</text>
    </g>
    <g stroke-linecap="butt" transform="matrix(1,0,0,1,449,-398)" fill="rgb(0,204,0)" text-rendering="geometricPrecision" shape-rendering="geometricPrecision" stroke="rgb(0,204,0)" stroke-width="2" stroke-miterlimit="1.45">
      <path fill="none" d="M159.6809 1183.8911 L294.0768 1183.8911" clip-path="url(#clipPath2)"/>
      <path d="M303.0768 1183.8911 L289.5768 1178.2661 L292.9518 1183.8911 L289.5768 1189.5161 Z" clip-path="url(#clipPath2)" stroke="none"/>
    </g>
    <g font-size="10px" stroke-linecap="butt" transform="matrix(1,0,0,1,449,-398)" text-rendering="geometricPrecision" font-family="'Arial'" shape-rendering="geometricPrecision" font-weight="bold" stroke-miterlimit="1.45">
      <text x="203.7303" xml:space="preserve" y="1203.7579" clip-path="url(#clipPath2)" stroke="none">timeout</text>
      <text x="169.2713" font-size="8px" y="1216.6606" clip-path="url(#clipPath2)" font-family="monospace" stroke="none" font-weight="normal" xml:space="preserve">t = rejection + AVCT + SVT</text>
    </g>
    <g stroke-linecap="butt" transform="matrix(1,0,0,1,449,-398)" fill="rgb(204,51,0)" text-rendering="geometricPrecision" shape-rendering="geometricPrecision" stroke="rgb(204,51,0)" stroke-width="2" stroke-miterlimit="1.45">
      <path fill="none" d="M165.7784 448.1862 L586.0017 448.1862 L586.0017 1256.4269" clip-path="url(#clipPath2)"/>
      <path d="M586.0017 1265.4269 L591.6267 1251.9269 L586.0017 1255.3019 L580.3767 1251.9269 Z" clip-path="url(#clipPath2)" stroke="none"/>
    </g>
    <g stroke-linecap="butt" font-size="10px" transform="matrix(1,0,0,1,449,-398)" fill="rgb(51,153,255)" text-rendering="geometricPrecision" font-family="'Arial'" shape-rendering="geometricPrecision" stroke="rgb(51,153,255)" font-weight="bold" stroke-miterlimit="1.45">
      <text x="285.0835" xml:space="preserve" y="425.653" clip-path="url(#clipPath2)" stroke="none">RejectReportComputedTask</text>
    </g>
    <g font-size="8px" stroke-linecap="butt" transform="matrix(1,0,0,1,449,-398)" text-rendering="geometricPrecision" font-family="monospace" shape-rendering="geometricPrecision" stroke-miterlimit="1.45">
      <text x="301.2376" xml:space="preserve" y="440.5558" clip-path="url(#clipPath2)" stroke="none">t &lt;= deadline + CMT</text>
    </g>
    <g stroke-linecap="butt" transform="matrix(1,0,0,1,449,-398)" fill="rgb(204,51,0)" text-rendering="geometricPrecision" shape-rendering="geometricPrecision" stroke="rgb(204,51,0)" stroke-width="2" stroke-miterlimit="1.45">
      <path fill="none" d="M165.7762 688.6212 L586.0017 688.6212 L586.0017 1256.4685" clip-path="url(#clipPath2)"/>
      <path d="M586.0017 1265.4685 L591.6267 1251.9685 L586.0017 1255.3435 L580.3767 1251.9685 Z" clip-path="url(#clipPath2)" stroke="none"/>
    </g>
    <g font-size="10px" stroke-linecap="butt" transform="matrix(1,0,0,1,449,-398)" text-rendering="geometricPrecision" font-family="'Arial'" shape-rendering="geometricPrecision" font-weight="bold" stroke-miterlimit="1.45">
      <text x="452.1982" xml:space="preserve" y="665.2847" clip-path="url(#clipPath2)" stroke="none">timeout</text>
      <text x="381.89" font-size="8px" y="681.3907" clip-path="url(#clipPath2)" font-family="monospace" stroke="none" font-weight="normal" xml:space="preserve">t = report + 2MDT + 3MAT + 4MMTT + CMT</text>
    </g>
    <g stroke-linecap="butt" transform="matrix(1,0,0,1,449,-398)" fill="rgb(204,51,0)" text-rendering="geometricPrecision" shape-rendering="geometricPrecision" stroke="rgb(204,51,0)" stroke-width="2" stroke-miterlimit="1.45">
      <path fill="none" d="M99.2645 1203.9911 L99.2645 1297.2744 L484.9017 1297.2744" clip-path="url(#clipPath2)"/>
      <path d="M493.9017 1297.2744 L480.4017 1291.6494 L483.7767 1297.2744 L480.4017 1302.8994 Z" clip-path="url(#clipPath2)" stroke="none"/>
    </g>
    <g font-size="10px" stroke-linecap="butt" transform="matrix(1,0,0,1,449,-398)" text-rendering="geometricPrecision" font-family="'Arial'" shape-rendering="geometricPrecision" font-weight="bold" stroke-miterlimit="1.45">
      <text x="253.7759" xml:space="preserve" y="1273.1412" clip-path="url(#clipPath2)" stroke="none">verification failed</text>
      <text x="234.2314" font-size="8px" y="1285.9945" clip-path="url(#clipPath2)" font-family="monospace" stroke="none" font-weight="normal" xml:space="preserve">t &lt; rejection + AVCT + SVT</text>
    </g>
  </g>
</svg>
