<?xml version="1.0" encoding="UTF-8"?><svg xmlns="http://www.w3.org/2000/svg" xmlns:xlink="http://www.w3.org/1999/xlink" fill-opacity="1" color-rendering="auto" color-interpolation="auto" text-rendering="auto" stroke="black" stroke-linecap="square" width="805" stroke-miterlimit="10" shape-rendering="auto" stroke-opacity="1" fill="black" stroke-dasharray="none" font-weight="normal" stroke-width="1" height="949" font-family="'Dialog'" font-style="normal" stroke-linejoin="miter" font-size="12px" stroke-dashoffset="0" image-rendering="auto">
  <!--Generated by ySVG 2.5-->
  <defs id="genericDefs"/>
  <g>
    <defs id="defs1">
      <clipPath clipPathUnits="userSpaceOnUse" id="clipPath1">
        <path d="M0 0 L805 0 L805 949 L0 949 L0 0 Z"/>
      </clipPath>
      <clipPath clipPathUnits="userSpaceOnUse" id="clipPath2">
        <path d="M-261 398 L544 398 L544 1347 L-261 1347 L-261 398 Z"/>
      </clipPath>
    </defs>
    <g fill="white" text-rendering="geometricPrecision" shape-rendering="geometricPrecision" transform="translate(261,-398)" stroke="white">
      <rect x="-261" width="805" height="949" y="398" clip-path="url(#clipPath2)" stroke="none"/>
    </g>
    <g fill="rgb(255,255,51)" text-rendering="geometricPrecision" shape-rendering="geometricPrecision" transform="matrix(1,0,0,1,261,-398)" stroke="rgb(255,255,51)">
      <ellipse rx="66.5" ry="34.5" clip-path="url(#clipPath2)" cx="-179.4165" cy="448.1862" stroke="none"/>
    </g>
    <g text-rendering="geometricPrecision" stroke-miterlimit="1.45" shape-rendering="geometricPrecision" transform="matrix(1,0,0,1,261,-398)" stroke-linecap="butt">
      <ellipse rx="66.5" fill="none" ry="34.5" clip-path="url(#clipPath2)" cx="-179.4165" cy="448.1862"/>
      <text x="-211.8628" xml:space="preserve" y="452.3405" clip-path="url(#clipPath2)" font-family="sans-serif" stroke="none">UNKNOWN</text>
    </g>
    <g fill="rgb(51,204,255)" text-rendering="geometricPrecision" shape-rendering="geometricPrecision" transform="matrix(1,0,0,1,261,-398)" stroke="rgb(51,204,255)">
      <ellipse rx="66.5" ry="34.5" clip-path="url(#clipPath2)" cx="99.2645" cy="448.1862" stroke="none"/>
    </g>
    <g text-rendering="geometricPrecision" stroke-miterlimit="1.45" shape-rendering="geometricPrecision" transform="matrix(1,0,0,1,261,-398)" stroke-linecap="butt">
      <ellipse rx="66.5" fill="none" ry="34.5" clip-path="url(#clipPath2)" cx="99.2645" cy="448.1862"/>
      <text x="71.8251" xml:space="preserve" y="445.3562" clip-path="url(#clipPath2)" font-family="sans-serif" stroke="none">FORCING</text>
      <text x="75.1298" xml:space="preserve" y="459.3249" clip-path="url(#clipPath2)" font-family="sans-serif" stroke="none">REPORT</text>
    </g>
    <g fill="rgb(255,255,51)" text-rendering="geometricPrecision" shape-rendering="geometricPrecision" transform="matrix(1,0,0,1,261,-398)" stroke="rgb(255,255,51)">
      <ellipse rx="66.5" ry="34.5" clip-path="url(#clipPath2)" cx="99.2645" cy="568.4037" stroke="none"/>
    </g>
    <g text-rendering="geometricPrecision" stroke-miterlimit="1.45" shape-rendering="geometricPrecision" transform="matrix(1,0,0,1,261,-398)" stroke-linecap="butt">
      <ellipse rx="66.5" fill="none" ry="34.5" clip-path="url(#clipPath2)" cx="99.2645" cy="568.4037"/>
      <text x="66.7186" xml:space="preserve" y="572.558" clip-path="url(#clipPath2)" font-family="sans-serif" stroke="none">REPORTED</text>
    </g>
    <g fill="rgb(51,204,255)" text-rendering="geometricPrecision" shape-rendering="geometricPrecision" transform="matrix(1,0,0,1,261,-398)" stroke="rgb(51,204,255)">
      <ellipse rx="66.5" ry="34.5" clip-path="url(#clipPath2)" cx="99.2645" cy="688.6212" stroke="none"/>
    </g>
    <g text-rendering="geometricPrecision" stroke-miterlimit="1.45" shape-rendering="geometricPrecision" transform="matrix(1,0,0,1,261,-398)" stroke-linecap="butt">
      <ellipse rx="66.5" fill="none" ry="34.5" clip-path="url(#clipPath2)" cx="99.2645" cy="688.6212"/>
      <text x="71.8251" xml:space="preserve" y="678.8068" clip-path="url(#clipPath2)" font-family="sans-serif" stroke="none">FORCING</text>
      <text x="76.0966" xml:space="preserve" y="692.7755" clip-path="url(#clipPath2)" font-family="sans-serif" stroke="none">RESULT</text>
      <text x="67.618" xml:space="preserve" y="706.7443" clip-path="url(#clipPath2)" font-family="sans-serif" stroke="none">TRANSFER</text>
    </g>
    <g fill="rgb(255,255,51)" text-rendering="geometricPrecision" shape-rendering="geometricPrecision" transform="matrix(1,0,0,1,261,-398)" stroke="rgb(255,255,51)">
      <ellipse rx="66.5" ry="34.5" clip-path="url(#clipPath2)" cx="99.2645" cy="808.8387" stroke="none"/>
    </g>
    <g text-rendering="geometricPrecision" stroke-miterlimit="1.45" shape-rendering="geometricPrecision" transform="matrix(1,0,0,1,261,-398)" stroke-linecap="butt">
      <ellipse rx="66.5" fill="none" ry="34.5" clip-path="url(#clipPath2)" cx="99.2645" cy="808.8387"/>
      <text x="76.0966" xml:space="preserve" y="806.0086" clip-path="url(#clipPath2)" font-family="sans-serif" stroke="none">RESULT</text>
      <text x="66.0536" xml:space="preserve" y="819.9774" clip-path="url(#clipPath2)" font-family="sans-serif" stroke="none">UPLOADED</text>
    </g>
    <g fill="rgb(51,204,255)" text-rendering="geometricPrecision" shape-rendering="geometricPrecision" transform="matrix(1,0,0,1,261,-398)" stroke="rgb(51,204,255)">
      <ellipse rx="66.5" ry="34.5" clip-path="url(#clipPath2)" cx="99.2645" cy="929.0562" stroke="none"/>
    </g>
    <g text-rendering="geometricPrecision" stroke-miterlimit="1.45" shape-rendering="geometricPrecision" transform="matrix(1,0,0,1,261,-398)" stroke-linecap="butt">
      <ellipse rx="66.5" fill="none" ry="34.5" clip-path="url(#clipPath2)" cx="99.2645" cy="929.0562"/>
      <text x="71.8251" xml:space="preserve" y="926.2261" clip-path="url(#clipPath2)" font-family="sans-serif" stroke="none">FORCING</text>
      <text x="59.1337" xml:space="preserve" y="940.1948" clip-path="url(#clipPath2)" font-family="sans-serif" stroke="none">ACCEPTANCE</text>
    </g>
    <g fill="rgb(255,255,51)" text-rendering="geometricPrecision" shape-rendering="geometricPrecision" transform="matrix(1,0,0,1,261,-398)" stroke="rgb(255,255,51)">
      <ellipse rx="66.5" ry="34.5" clip-path="url(#clipPath2)" cx="289.1046" cy="1169.4911" stroke="none"/>
    </g>
    <g text-rendering="geometricPrecision" stroke-miterlimit="1.45" shape-rendering="geometricPrecision" transform="matrix(1,0,0,1,261,-398)" stroke-linecap="butt">
      <ellipse rx="66.5" fill="none" ry="34.5" clip-path="url(#clipPath2)" cx="289.1046" cy="1169.4911"/>
      <text x="257.1358" xml:space="preserve" y="1173.6454" clip-path="url(#clipPath2)" font-family="sans-serif" stroke="none">ACCEPTED</text>
    </g>
    <g fill="rgb(255,255,51)" text-rendering="geometricPrecision" shape-rendering="geometricPrecision" transform="matrix(1,0,0,1,261,-398)" stroke="rgb(255,255,51)">
      <ellipse rx="66.5" ry="34.5" clip-path="url(#clipPath2)" cx="99.2645" cy="1049.2736" stroke="none"/>
    </g>
    <g text-rendering="geometricPrecision" stroke-miterlimit="1.45" shape-rendering="geometricPrecision" transform="matrix(1,0,0,1,261,-398)" stroke-linecap="butt">
      <ellipse rx="66.5" fill="none" ry="34.5" clip-path="url(#clipPath2)" cx="99.2645" cy="1049.2736"/>
      <text x="69.4784" xml:space="preserve" y="1053.428" clip-path="url(#clipPath2)" font-family="sans-serif" stroke="none">REJECTED</text>
    </g>
    <g fill="rgb(51,204,255)" text-rendering="geometricPrecision" shape-rendering="geometricPrecision" transform="matrix(1,0,0,1,261,-398)" stroke="rgb(51,204,255)">
      <ellipse rx="66.5" ry="34.5" clip-path="url(#clipPath2)" cx="99.2645" cy="1169.4911" stroke="none"/>
    </g>
    <g text-rendering="geometricPrecision" stroke-miterlimit="1.45" shape-rendering="geometricPrecision" transform="matrix(1,0,0,1,261,-398)" stroke-linecap="butt">
      <ellipse rx="66.5" fill="none" ry="34.5" clip-path="url(#clipPath2)" cx="99.2645" cy="1169.4911"/>
      <text x="62.0575" xml:space="preserve" y="1166.661" clip-path="url(#clipPath2)" font-family="sans-serif" stroke="none">ADDITIONAL</text>
      <text x="57.2704" xml:space="preserve" y="1180.6298" clip-path="url(#clipPath2)" font-family="sans-serif" stroke="none">VERIFICATION</text>
    </g>
    <g fill="rgb(255,255,51)" text-rendering="geometricPrecision" shape-rendering="geometricPrecision" transform="matrix(1,0,0,1,261,-398)" stroke="rgb(255,255,51)">
      <ellipse rx="66.5" ry="34.5" clip-path="url(#clipPath2)" cx="462.0017" cy="1297.2744" stroke="none"/>
    </g>
    <g text-rendering="geometricPrecision" stroke-miterlimit="1.45" shape-rendering="geometricPrecision" transform="matrix(1,0,0,1,261,-398)" stroke-linecap="butt">
      <ellipse rx="66.5" fill="none" ry="34.5" clip-path="url(#clipPath2)" cx="462.0017" cy="1297.2744"/>
      <text x="440.9226" xml:space="preserve" y="1301.4287" clip-path="url(#clipPath2)" font-family="sans-serif" stroke="none">FAILED</text>
      <path fill="none" d="M-112.9629 448.1862 L24.7683 448.1862" clip-path="url(#clipPath2)"/>
      <path d="M32.7683 448.1862 L20.7683 443.1862 L23.7683 448.1862 L20.7683 453.1862 Z" clip-path="url(#clipPath2)" stroke="none"/>
      <path fill="none" d="M99.2645 482.7071 L99.2645 524.8893" stroke-width="2" clip-path="url(#clipPath2)" stroke="rgb(0,204,0)"/>
      <path fill="rgb(0,204,0)" d="M99.2645 533.8893 L104.8895 520.3893 L99.2645 523.7643 L93.6395 520.3893 Z" stroke-width="2" clip-path="url(#clipPath2)" stroke="none"/>
      <path fill="none" d="M-179.4165 482.6835 L-179.4165 688.6212 L24.7641 688.6212" clip-path="url(#clipPath2)"/>
      <path d="M32.7641 688.6212 L20.7641 683.6212 L23.7641 688.6212 L20.7641 693.6212 Z" clip-path="url(#clipPath2)" stroke="none"/>
      <path fill="none" d="M99.2645 602.9037 L99.2645 646.1212" clip-path="url(#clipPath2)"/>
      <path d="M99.2645 654.1212 L104.2645 642.1212 L99.2645 645.1212 L94.2645 642.1212 Z" clip-path="url(#clipPath2)" stroke="none"/>
      <path fill="none" d="M99.2645 723.1212 L99.2645 765.3387" stroke-width="2" clip-path="url(#clipPath2)" stroke="rgb(0,204,0)"/>
      <path fill="rgb(0,204,0)" d="M99.2645 774.3387 L104.8895 760.8387 L99.2645 764.2137 L93.6395 760.8387 Z" stroke-width="2" clip-path="url(#clipPath2)" stroke="none"/>
      <path fill="none" d="M-179.4165 482.6849 L-179.4165 916.8334 L29.0707 916.8334" clip-path="url(#clipPath2)"/>
      <path d="M37.0707 916.8334 L25.0707 911.8334 L28.0707 916.8334 L25.0707 921.8334 Z" clip-path="url(#clipPath2)" stroke="none"/>
      <path fill="none" d="M165.7737 568.4037 L289.1046 568.4037 L289.1046 915.7222 L168.5825 915.7222" clip-path="url(#clipPath2)"/>
      <path d="M160.5825 915.7222 L172.5825 920.7222 L169.5825 915.7222 L172.5825 910.7222 Z" clip-path="url(#clipPath2)" stroke="none"/>
      <path fill="none" d="M99.2645 843.3527 L99.2645 886.5562" clip-path="url(#clipPath2)"/>
      <path d="M99.2645 894.5562 L104.2645 882.5562 L99.2645 885.5562 L94.2645 882.5562 Z" clip-path="url(#clipPath2)" stroke="none"/>
      <path fill="none" d="M159.6711 943.4719 L289.1046 943.4719 L289.1046 1126.0051" stroke-width="2" clip-path="url(#clipPath2)" stroke="rgb(0,204,0)"/>
      <path fill="rgb(0,204,0)" d="M289.1046 1135.0051 L294.7296 1121.5051 L289.1046 1124.8801 L283.4796 1121.5051 Z" stroke-width="2" clip-path="url(#clipPath2)" stroke="none"/>
      <path fill="none" d="M99.2645 963.5386 L99.2645 1005.7736" stroke-width="2" clip-path="url(#clipPath2)" stroke="rgb(204,51,0)"/>
      <path fill="rgb(204,51,0)" d="M99.2645 1014.7736 L104.8895 1001.2736 L99.2645 1004.6486 L93.6395 1001.2736 Z" stroke-width="2" clip-path="url(#clipPath2)" stroke="none"/>
      <path fill="none" d="M-179.4165 482.7214 L-179.4165 1182.8242 L29.9429 1182.8242" clip-path="url(#clipPath2)"/>
      <path d="M37.9428 1182.8242 L25.9428 1177.8242 L28.9428 1182.8242 L25.9428 1187.8242 Z" clip-path="url(#clipPath2)" stroke="none"/>
      <path fill="none" d="M99.2645 1083.7737 L99.2645 1126.9911" clip-path="url(#clipPath2)"/>
      <path d="M99.2645 1134.9911 L104.2645 1122.9911 L99.2645 1125.9911 L94.2645 1122.9911 Z" clip-path="url(#clipPath2)" stroke="none"/>
      <path fill="none" d="M32.7533 568.4037 L-74.9684 568.4037 L-74.9684 1156.1581 L29.8987 1156.1581" clip-path="url(#clipPath2)"/>
      <path d="M37.8987 1156.1581 L25.8987 1151.1581 L28.8987 1156.1581 L25.8987 1161.1581 Z" clip-path="url(#clipPath2)" stroke="none"/>
      <path fill="none" d="M32.7759 808.8387 L-74.9684 808.8387 L-74.9684 1156.1581 L29.9555 1156.1581" clip-path="url(#clipPath2)"/>
      <path d="M37.9555 1156.1581 L25.9555 1151.1581 L28.9555 1156.1581 L25.9555 1161.1581 Z" clip-path="url(#clipPath2)" stroke="none"/>
      <path fill="none" d="M38.865 943.4719 L-74.9684 943.4719 L-74.9684 1156.1581 L29.9682 1156.1581" clip-path="url(#clipPath2)"/>
      <path d="M37.9682 1156.1581 L25.9682 1151.1581 L28.9682 1156.1581 L25.9682 1161.1581 Z" clip-path="url(#clipPath2)" stroke="none"/>
      <path fill="none" d="M165.7822 1169.4911 L213.6046 1169.4911" stroke-width="2" clip-path="url(#clipPath2)" stroke="rgb(0,204,0)"/>
      <path fill="rgb(0,204,0)" d="M222.6046 1169.4911 L209.1046 1163.8661 L212.4796 1169.4911 L209.1046 1175.1161 Z" stroke-width="2" clip-path="url(#clipPath2)" stroke="none"/>
      <path fill="none" d="M165.7644 448.1862 L462.0017 448.1862 L462.0017 1253.756" stroke-width="2" clip-path="url(#clipPath2)" stroke="rgb(204,51,0)"/>
      <path fill="rgb(204,51,0)" d="M462.0017 1262.756 L467.6267 1249.256 L462.0017 1252.631 L456.3767 1249.256 Z" stroke-width="2" clip-path="url(#clipPath2)" stroke="none"/>
      <path fill="none" d="M165.7728 688.6212 L462.0017 688.6212 L462.0017 1253.7474" stroke-width="2" clip-path="url(#clipPath2)" stroke="rgb(204,51,0)"/>
      <path fill="rgb(204,51,0)" d="M462.0017 1262.7474 L467.6267 1249.2474 L462.0017 1252.6224 L456.3767 1249.2474 Z" stroke-width="2" clip-path="url(#clipPath2)" stroke="none"/>
      <path fill="none" d="M99.2645 1203.9911 L99.2645 1297.2744 L386.5017 1297.2744" stroke-width="2" clip-path="url(#clipPath2)" stroke="rgb(204,51,0)"/>
      <path fill="rgb(204,51,0)" d="M395.5017 1297.2744 L382.0017 1291.6494 L385.3767 1297.2744 L382.0017 1302.8994 Z" stroke-width="2" clip-path="url(#clipPath2)" stroke="none"/>
    </g>
  </g>
</svg>
